<svg fill="#000000" xmlns="http://www.w3.org/2000/svg" viewBox="0 0 64 64" width="256px" height="256px"><path d="M 44.644531 0.648438 C 44.53125 0.652344 44.417969 0.671875 44.308594 0.71875 L 42.453125 1.46875 C 42.011719 1.648438 41.757813 2.113281 41.84375 2.578125 L 42.515625 6.125 C 41.644531 6.757813 40.878906 7.507813 40.230469 8.359375 L 36.703125 7.632813 C 36.238281 7.535156 35.769531 7.78125 35.582031 8.21875 L 34.800781 10.0625 C 34.617188 10.5 34.765625 11.007813 35.15625 11.277344 L 38.132813 13.308594 C 37.964844 14.367188 37.957031 15.4375 38.109375 16.503906 L 35.09375 18.484375 C 34.699219 18.746094 34.539063 19.25 34.71875 19.691406 L 35.46875 21.546875 C 35.644531 21.988281 36.109375 22.246094 36.578125 22.15625 L 40.121094 21.484375 C 40.753906 22.355469 41.503906 23.121094 42.359375 23.765625 L 41.628906 27.296875 C 41.535156 27.761719 41.78125 28.230469 42.21875 28.417969 L 44.0625 29.199219 C 44.5 29.382813 45.007813 29.234375 45.277344 28.84375 L 47.308594 25.867188 C 48.367188 26.03125 49.4375 26.042969 50.503906 25.890625 L 52.484375 28.90625 C 52.671875 29.191406 52.992188 29.355469 53.320313 29.355469 C 53.445313 29.355469 53.570313 29.332031 53.691406 29.28125 L 55.546875 28.53125 C 55.992188 28.355469 56.246094 27.886719 56.15625 27.421875 L 55.488281 23.878906 C 56.359375 23.246094 57.125 22.496094 57.769531 21.640625 L 61.296875 22.371094 C 61.761719 22.460938 62.230469 22.21875 62.417969 21.78125 L 63.199219 19.9375 C 63.382813 19.5 63.234375 18.992188 62.84375 18.722656 L 59.863281 16.691406 C 60.03125 15.632813 60.039063 14.566406 59.890625 13.5 L 62.902344 11.515625 C 63.300781 11.253906 63.460938 10.75 63.28125 10.308594 L 62.53125 8.453125 C 62.351563 8.011719 61.886719 7.753906 61.421875 7.84375 L 57.875 8.515625 C 57.242188 7.644531 56.492188 6.878906 55.640625 6.234375 L 56.367188 2.703125 C 56.464844 2.238281 56.21875 1.769531 55.78125 1.582031 L 53.9375 0.804688 C 53.5 0.617188 52.992188 0.765625 52.722656 1.15625 L 50.691406 4.132813 C 49.632813 3.96875 48.5625 3.960938 47.496094 4.109375 L 45.515625 1.097656 C 45.320313 0.800781 44.988281 0.632813 44.644531 0.648438 Z M 44.296875 2.878906 L 46.1875 5.753906 C 46.410156 6.09375 46.816406 6.261719 47.21875 6.183594 C 48.460938 5.933594 49.710938 5.945313 50.9375 6.214844 C 51.332031 6.300781 51.746094 6.140625 51.980469 5.800781 L 53.914063 2.960938 L 54.246094 3.101563 L 53.550781 6.46875 C 53.46875 6.867188 53.636719 7.277344 53.976563 7.503906 C 55.023438 8.195313 55.898438 9.089844 56.578125 10.15625 C 56.796875 10.5 57.207031 10.679688 57.609375 10.601563 L 60.984375 9.960938 L 61.121094 10.296875 L 58.25 12.1875 C 57.90625 12.410156 57.734375 12.820313 57.816406 13.21875 C 58.066406 14.460938 58.058594 15.710938 57.785156 16.9375 C 57.699219 17.335938 57.859375 17.746094 58.199219 17.976563 L 61.035156 19.910156 L 60.894531 20.246094 L 57.53125 19.546875 C 57.128906 19.46875 56.722656 19.636719 56.496094 19.976563 C 55.804688 21.023438 54.910156 21.898438 53.84375 22.578125 C 53.5 22.796875 53.324219 23.207031 53.398438 23.609375 L 54.035156 26.984375 L 53.703125 27.121094 L 51.8125 24.246094 C 51.628906 23.960938 51.308594 23.796875 50.980469 23.796875 C 50.914063 23.796875 50.84375 23.800781 50.78125 23.816406 C 49.539063 24.066406 48.289063 24.058594 47.0625 23.785156 C 46.667969 23.699219 46.253906 23.859375 46.023438 24.199219 L 44.089844 27.035156 L 43.753906 26.894531 L 44.453125 23.53125 C 44.535156 23.132813 44.363281 22.722656 44.023438 22.496094 C 42.976563 21.804688 42.101563 20.910156 41.421875 19.84375 C 41.203125 19.5 40.796875 19.324219 40.390625 19.398438 L 37.015625 20.035156 L 36.878906 19.703125 L 39.753906 17.8125 C 40.09375 17.589844 40.265625 17.179688 40.1875 16.78125 C 39.933594 15.539063 39.945313 14.289063 40.214844 13.0625 C 40.304688 12.664063 40.140625 12.253906 39.800781 12.023438 L 36.964844 10.089844 L 37.105469 9.757813 L 40.46875 10.453125 C 40.871094 10.53125 41.28125 10.363281 41.503906 10.023438 C 42.199219 8.976563 43.089844 8.101563 44.15625 7.421875 C 44.5 7.203125 44.675781 6.792969 44.601563 6.390625 L 43.964844 3.015625 Z M 49 9 C 45.691406 9 43 11.691406 43 15 C 43 18.308594 45.691406 21 49 21 C 52.308594 21 55 18.308594 55 15 C 55 11.691406 52.308594 9 49 9 Z M 49 10.761719 C 51.339844 10.761719 53.238281 12.660156 53.238281 15 C 53.238281 17.339844 51.339844 19.238281 49 19.238281 C 46.660156 19.238281 44.761719 17.339844 44.761719 15 C 44.761719 12.660156 46.660156 10.761719 49 10.761719 Z M 49 13 C 47.894531 13 47 13.894531 47 15 C 47 16.105469 47.894531 17 49 17 C 50.105469 17 51 16.105469 51 15 C 51 13.894531 50.105469 13 49 13 Z M 21.78125 18 C 20.863281 18 20.066406 18.625 19.84375 19.515625 L 18.5625 24.601563 C 17.160156 24.980469 15.8125 25.539063 14.546875 26.277344 L 10.042969 23.574219 C 9.257813 23.101563 8.25 23.222656 7.601563 23.875 L 5.875 25.597656 C 5.226563 26.25 5.101563 27.253906 5.574219 28.042969 L 8.269531 32.546875 C 7.542969 33.8125 6.980469 35.160156 6.609375 36.566406 L 1.515625 37.839844 C 0.625 38.0625 0 38.859375 0 39.78125 L 0 42.21875 C 0 43.136719 0.625 43.933594 1.515625 44.15625 L 6.601563 45.4375 C 6.980469 46.839844 7.539063 48.1875 8.277344 49.453125 L 5.574219 53.957031 C 5.101563 54.746094 5.222656 55.75 5.875 56.402344 L 7.601563 58.125 C 8.25 58.773438 9.253906 58.898438 10.042969 58.425781 L 14.546875 55.730469 C 15.808594 56.457031 17.160156 57.019531 18.566406 57.390625 L 19.84375 62.484375 C 20.0625 63.378906 20.859375 64 21.78125 64 L 24.21875 64 C 25.136719 64 25.933594 63.375 26.15625 62.484375 L 27.4375 57.398438 C 28.839844 57.019531 30.1875 56.457031 31.453125 55.722656 L 35.957031 58.425781 C 36.742188 58.898438 37.75 58.777344 38.402344 58.125 L 40.125 56.402344 C 40.773438 55.753906 40.898438 54.746094 40.425781 53.957031 L 37.734375 49.453125 C 38.460938 48.191406 39.019531 46.839844 39.390625 45.433594 L 44.484375 44.160156 C 45.375 43.9375 46 43.140625 46 42.21875 L 46 39.78125 C 46 38.859375 45.375 38.0625 44.484375 37.839844 L 39.398438 36.5625 C 39.019531 35.160156 38.457031 33.808594 37.722656 32.546875 L 40.425781 28.042969 C 40.898438 27.253906 40.777344 26.25 40.125 25.597656 L 38.402344 23.875 C 37.75 23.226563 36.746094 23.101563 35.957031 23.574219 L 31.453125 26.265625 C 30.1875 25.539063 28.839844 24.980469 27.433594 24.609375 L 26.160156 19.515625 C 25.9375 18.625 25.140625 18 24.21875 18 Z M 21.78125 20 L 24.21875 20 L 25.492188 25.09375 C 25.667969 25.792969 26.214844 26.34375 26.917969 26.53125 C 28.152344 26.867188 29.339844 27.359375 30.453125 28 C 31.089844 28.367188 31.863281 28.363281 32.480469 27.992188 L 36.984375 25.289063 L 38.710938 27.015625 L 36.007813 31.519531 C 35.636719 32.136719 35.632813 32.914063 36 33.546875 C 36.640625 34.660156 37.132813 35.851563 37.46875 37.082031 C 37.65625 37.789063 38.207031 38.332031 38.90625 38.507813 L 44 39.78125 L 44 42.21875 L 38.90625 43.492188 C 38.207031 43.667969 37.65625 44.214844 37.46875 44.917969 C 37.132813 46.152344 36.636719 47.339844 36 48.453125 C 35.632813 49.085938 35.636719 49.863281 36.007813 50.480469 L 38.710938 54.984375 L 36.984375 56.710938 L 32.484375 54.007813 C 31.863281 53.636719 31.089844 53.632813 30.457031 54 C 29.34375 54.640625 28.152344 55.132813 26.917969 55.46875 C 26.214844 55.65625 25.667969 56.207031 25.492188 56.90625 L 24.21875 62 L 21.78125 62 L 20.507813 56.90625 C 20.332031 56.210938 19.785156 55.660156 19.082031 55.46875 C 17.847656 55.132813 16.660156 54.640625 15.546875 54 C 15.230469 53.816406 14.878906 53.730469 14.53125 53.730469 C 14.179688 53.730469 13.828125 53.820313 13.515625 54.007813 L 9.015625 56.710938 L 7.289063 54.984375 L 9.992188 50.484375 C 10.363281 49.867188 10.367188 49.089844 10 48.453125 C 9.359375 47.339844 8.867188 46.152344 8.53125 44.917969 C 8.34375 44.210938 7.792969 43.664063 7.09375 43.492188 L 2 42.21875 L 2 39.78125 L 7.09375 38.507813 C 7.789063 38.335938 8.339844 37.785156 8.53125 37.082031 C 8.867188 35.847656 9.359375 34.660156 10 33.546875 C 10.367188 32.910156 10.363281 32.132813 9.992188 31.515625 L 7.289063 27.015625 L 9.015625 25.289063 L 13.515625 27.992188 C 14.132813 28.363281 14.910156 28.367188 15.546875 28 C 16.660156 27.359375 17.847656 26.867188 19.082031 26.53125 C 19.785156 26.34375 20.332031 25.792969 20.507813 25.09375 Z M 22.789063 29.003906 C 21.402344 29.011719 20.011719 29.238281 18.699219 29.6875 C 18.175781 29.867188 17.898438 30.433594 18.078125 30.957031 C 18.21875 31.375 18.609375 31.636719 19.023438 31.636719 C 19.128906 31.636719 19.238281 31.617188 19.347656 31.578125 C 21.5625 30.820313 24.035156 30.8125 26.253906 31.546875 C 26.78125 31.714844 27.34375 31.433594 27.515625 30.90625 C 27.691406 30.382813 27.40625 29.820313 26.882813 29.644531 C 25.566406 29.210938 24.175781 28.996094 22.789063 29.003906 Z M 30.0625 31.546875 C 29.808594 31.578125 29.566406 31.703125 29.394531 31.921875 C 29.054688 32.355469 29.128906 32.984375 29.5625 33.328125 C 30.082031 33.738281 30.570313 34.199219 31.003906 34.699219 C 31.203125 34.925781 31.480469 35.039063 31.761719 35.039063 C 31.992188 35.039063 32.230469 34.957031 32.417969 34.792969 C 32.832031 34.429688 32.875 33.796875 32.511719 33.378906 C 31.992188 32.789063 31.417969 32.242188 30.800781 31.757813 C 30.582031 31.585938 30.320313 31.519531 30.0625 31.546875 Z M 23 34 C 19.140625 34 16 37.140625 16 41 C 16 44.859375 19.140625 48 23 48 C 26.859375 48 30 44.859375 30 41 C 30 37.140625 26.859375 34 23 34 Z M 11.78125 35.589844 C 11.390625 35.601563 11.027344 35.84375 10.878906 36.230469 C 10.679688 36.746094 10.9375 37.324219 11.453125 37.523438 L 13.152344 38.175781 C 13.269531 38.222656 13.394531 38.242188 13.511719 38.242188 C 13.914063 38.242188 14.292969 37.996094 14.445313 37.597656 C 14.644531 37.082031 14.382813 36.507813 13.871094 36.308594 L 12.171875 35.65625 C 12.042969 35.605469 11.910156 35.585938 11.78125 35.589844 Z M 23 36 C 25.757813 36 28 38.242188 28 41 C 28 43.757813 25.757813 46 23 46 C 20.242188 46 18 43.757813 18 41 C 18 38.242188 20.242188 36 23 36 Z M 23 39 C 21.894531 39 21 39.894531 21 41 C 21 42.105469 21.894531 43 23 43 C 24.105469 43 25 42.105469 25 41 C 25 39.894531 24.105469 39 23 39 Z M 12.828125 40.003906 L 11.011719 40.035156 C 10.457031 40.046875 10.015625 40.5 10.027344 41.050781 C 10.039063 41.597656 10.484375 42.035156 11.027344 42.035156 L 11.046875 42.035156 L 12.863281 42.003906 C 13.417969 41.992188 13.859375 41.539063 13.847656 40.984375 C 13.835938 40.433594 13.386719 40.023438 12.828125 40.003906 Z M 13.640625 43.738281 C 13.507813 43.738281 13.378906 43.765625 13.25 43.816406 L 11.578125 44.53125 C 11.066406 44.746094 10.832031 45.332031 11.046875 45.84375 C 11.207031 46.222656 11.578125 46.453125 11.96875 46.453125 C 12.097656 46.453125 12.230469 46.425781 12.359375 46.371094 L 14.03125 45.660156 C 14.539063 45.445313 14.777344 44.859375 14.5625 44.347656 C 14.402344 43.96875 14.027344 43.738281 13.640625 43.738281 Z M 15.777344 46.90625 C 15.519531 46.90625 15.265625 47.003906 15.070313 47.199219 L 13.78125 48.484375 C 13.390625 48.878906 13.390625 49.507813 13.78125 49.902344 C 13.976563 50.09375 14.234375 50.191406 14.488281 50.191406 C 14.746094 50.191406 15.003906 50.09375 15.199219 49.902344 L 16.484375 48.613281 C 16.875 48.222656 16.875 47.589844 16.484375 47.199219 C 16.289063 47.003906 16.035156 46.90625 15.777344 46.90625 Z"/></svg>