<svg fill="#000000" xmlns="http://www.w3.org/2000/svg" viewBox="0 0 64 64" width="256px" height="256px"><path d="M 15 2 C 13.347656 2 12 3.347656 12 5 L 12 27 C 12 28.652344 13.347656 30 15 30 L 25.972656 30 L 12.90625 39.699219 C 12.792969 39.78125 12.703125 39.886719 12.636719 40 L 3 40 C 1.347656 40 0 41.347656 0 43 L 0 55 C 0 56.652344 1.347656 58 3 58 L 10 58 L 10 60 L 7 60 C 6.445313 60 6 60.445313 6 61 C 6 61.554688 6.445313 62 7 62 L 21 62 C 21.554688 62 22 61.554688 22 61 C 22 60.445313 21.554688 60 21 60 L 18 60 L 18 58 L 25 58 C 26.652344 58 28 56.652344 28 55 L 28 43 C 28 41.347656 26.652344 40 25 40 L 15.851563 40 L 29.328125 30 L 34.660156 30 L 47.703125 40 L 39 40 C 37.347656 40 36 41.347656 36 43 L 36 55 C 36 56.652344 37.347656 58 39 58 L 46 58 L 46 60 L 43 60 C 42.445313 60 42 60.445313 42 61 C 42 61.554688 42.445313 62 43 62 L 57 62 C 57.554688 62 58 61.554688 58 61 C 58 60.445313 57.554688 60 57 60 L 54 60 L 54 58 L 61 58 C 62.652344 58 64 56.652344 64 55 L 64 43 C 64 41.347656 62.652344 40 61 40 L 50.863281 40 C 50.800781 39.890625 50.714844 39.789063 50.609375 39.703125 L 37.949219 30 L 49 30 C 50.652344 30 52 28.652344 52 27 L 52 5 C 52 3.347656 50.652344 2 49 2 Z M 15 4 L 49 4 C 49.550781 4 50 4.449219 50 5 L 50 6 L 14 6 L 14 5 C 14 4.449219 14.449219 4 15 4 Z M 14 8 L 50 8 L 50 27 C 50 27.550781 49.550781 28 49 28 L 15 28 C 14.449219 28 14 27.550781 14 27 Z M 21.039063 12.046875 C 20.558594 12.046875 20.078125 12.445313 20.078125 13.046875 C 20.078125 13.644531 20.4375 14.046875 21.039063 14.046875 L 23 14.046875 C 23.601563 14.046875 23.960938 13.644531 23.960938 13.046875 C 23.960938 12.445313 23.601563 12.046875 23 12.046875 Z M 27 12.046875 C 26.445313 12.046875 26 12.492188 26 13.046875 C 26 13.597656 26.445313 14.046875 27 14.046875 L 43 14.046875 C 43.554688 14.046875 44 13.597656 44 13.046875 C 44 12.492188 43.554688 12.046875 43 12.046875 Z M 21.039063 16.046875 C 20.558594 16.046875 20.078125 16.445313 20.078125 17.046875 C 20.078125 17.644531 20.4375 18.046875 21.039063 18.046875 L 23 18.046875 C 23.601563 18.046875 23.960938 17.644531 23.960938 17.046875 C 23.960938 16.445313 23.601563 16.046875 23 16.046875 Z M 27 16.046875 C 26.445313 16.046875 26 16.492188 26 17.046875 C 26 17.597656 26.445313 18.046875 27 18.046875 L 43 18.046875 C 43.554688 18.046875 44 17.597656 44 17.046875 C 44 16.492188 43.554688 16.046875 43 16.046875 Z M 17 22 C 16.445313 22 16 22.445313 16 23 L 16 25 C 16 25.554688 16.445313 26 17 26 C 17.554688 26 18 25.554688 18 25 L 18 23 C 18 22.445313 17.554688 22 17 22 Z M 22 22 C 21.445313 22 21 22.445313 21 23 L 21 25 C 21 25.554688 21.445313 26 22 26 C 22.554688 26 23 25.554688 23 25 L 23 23 C 23 22.445313 22.554688 22 22 22 Z M 27 22 C 26.445313 22 26 22.445313 26 23 L 26 25 C 26 25.554688 26.445313 26 27 26 C 27.554688 26 28 25.554688 28 25 L 28 23 C 28 22.445313 27.554688 22 27 22 Z M 32 22 C 31.445313 22 31 22.445313 31 23 L 31 25 C 31 25.554688 31.445313 26 32 26 C 32.554688 26 33 25.554688 33 25 L 33 23 C 33 22.445313 32.554688 22 32 22 Z M 37 22 C 36.445313 22 36 22.445313 36 23 L 36 25 C 36 25.554688 36.445313 26 37 26 C 37.554688 26 38 25.554688 38 25 L 38 23 C 38 22.445313 37.554688 22 37 22 Z M 42 22 C 41.445313 22 41 22.445313 41 23 L 41 25 C 41 25.554688 41.445313 26 42 26 C 42.554688 26 43 25.554688 43 25 L 43 23 C 43 22.445313 42.554688 22 42 22 Z M 47 22 C 46.445313 22 46 22.445313 46 23 L 46 25 C 46 25.554688 46.445313 26 47 26 C 47.554688 26 48 25.554688 48 25 L 48 23 C 48 22.445313 47.554688 22 47 22 Z M 3 42 L 25 42 C 25.550781 42 26 42.449219 26 43 L 26 52 L 23 52 C 22.445313 52 22 52.445313 22 53 C 22 53.554688 22.445313 54 23 54 L 26 54 L 26 55 C 26 55.550781 25.550781 56 25 56 L 3 56 C 2.449219 56 2 55.550781 2 55 L 2 54 L 19.082031 54 C 19.636719 54 20.082031 53.554688 20.082031 53 C 20.082031 52.445313 19.636719 52 19.082031 52 L 2 52 L 2 43 C 2 42.449219 2.449219 42 3 42 Z M 39 42 L 61 42 C 61.550781 42 62 42.449219 62 43 L 62 52 L 59 52 C 58.445313 52 58 52.445313 58 53 C 58 53.554688 58.445313 54 59 54 L 62 54 L 62 55 C 62 55.550781 61.550781 56 61 56 L 39 56 C 38.449219 56 38 55.550781 38 55 L 38 54 L 55.082031 54 C 55.636719 54 56.082031 53.554688 56.082031 53 C 56.082031 52.445313 55.636719 52 55.082031 52 L 38 52 L 38 43 C 38 42.449219 38.449219 42 39 42 Z M 12 58 L 16 58 L 16 60 L 12 60 Z M 48 58 L 52 58 L 52 60 L 48 60 Z"/></svg>