<svg fill="#000000" xmlns="http://www.w3.org/2000/svg" viewBox="0 0 64 64" width="512px" height="512px"><path d="M 5 2 C 3.347656 2 2 3.347656 2 5 L 2 43 C 2 44.652344 3.347656 46 5 46 L 59 46 C 60.652344 46 62 44.652344 62 43 L 62 5 C 62 3.347656 60.652344 2 59 2 Z M 5 4 L 59 4 C 59.550781 4 60 4.449219 60 5 L 60 43 C 60 43.550781 59.550781 44 59 44 L 5 44 C 4.449219 44 4 43.550781 4 43 L 4 5 C 4 4.449219 4.449219 4 5 4 Z M 9 8 C 8.445313 8 8 8.449219 8 9 L 8 39 C 8 39.550781 8.445313 40 9 40 L 55 40 C 55.554688 40 56 39.550781 56 39 L 56 9 C 56 8.449219 55.554688 8 55 8 Z M 10 10 L 54 10 L 54 38 L 10 38 Z M 12 12 C 11.445313 12 11 12.449219 11 13 L 11 15 C 11 15.550781 11.445313 16 12 16 C 12.554688 16 13 15.550781 13 15 L 13 13 C 13 12.449219 12.554688 12 12 12 Z M 17 12 C 16.445313 12 16 12.449219 16 13 L 16 15 C 16 15.550781 16.445313 16 17 16 C 17.554688 16 18 15.550781 18 15 L 18 13 C 18 12.449219 17.554688 12 17 12 Z M 22 12 C 21.445313 12 21 12.449219 21 13 L 21 15 C 21 15.550781 21.445313 16 22 16 C 22.554688 16 23 15.550781 23 15 L 23 13 C 23 12.449219 22.554688 12 22 12 Z M 27 12 C 26.445313 12 26 12.449219 26 13 L 26 15 C 26 15.550781 26.445313 16 27 16 C 27.554688 16 28 15.550781 28 15 L 28 13 C 28 12.449219 27.554688 12 27 12 Z M 32 12 C 31.445313 12 31 12.449219 31 13 L 31 15 C 31 15.550781 31.445313 16 32 16 C 32.554688 16 33 15.550781 33 15 L 33 13 C 33 12.449219 32.554688 12 32 12 Z M 37 12 C 36.445313 12 36 12.449219 36 13 L 36 15 C 36 15.550781 36.445313 16 37 16 C 37.554688 16 38 15.550781 38 15 L 38 13 C 38 12.449219 37.554688 12 37 12 Z M 42 12 C 41.445313 12 41 12.449219 41 13 L 41 15 C 41 15.550781 41.445313 16 42 16 C 42.554688 16 43 15.550781 43 15 L 43 13 C 43 12.449219 42.554688 12 42 12 Z M 47 12 C 46.445313 12 46 12.449219 46 13 L 46 15 C 46 15.550781 46.445313 16 47 16 C 47.554688 16 48 15.550781 48 15 L 48 13 C 48 12.449219 47.554688 12 47 12 Z M 52 12 C 51.445313 12 51 12.449219 51 13 L 51 15 C 51 15.550781 51.445313 16 52 16 C 52.554688 16 53 15.550781 53 15 L 53 13 C 53 12.449219 52.554688 12 52 12 Z M 5 48 C 3.347656 48 2 49.347656 2 51 L 2 59 C 2 60.652344 3.347656 62 5 62 L 59 62 C 60.652344 62 62 60.652344 62 59 L 62 51 C 62 49.347656 60.652344 48 59 48 Z M 5 50 L 59 50 C 59.550781 50 60 50.449219 60 51 L 60 59 C 60 59.550781 59.550781 60 59 60 L 5 60 C 4.449219 60 4 59.550781 4 59 L 4 51 C 4 50.449219 4.449219 50 5 50 Z M 53 52 C 51.347656 52 50 53.347656 50 55 C 50 56.652344 51.347656 58 53 58 C 54.652344 58 56 56.652344 56 55 C 56 53.347656 54.652344 52 53 52 Z M 53 53.542969 C 53.804688 53.542969 54.457031 54.195313 54.457031 55 C 54.457031 55.804688 53.804688 56.457031 53 56.457031 C 52.195313 56.457031 51.542969 55.804688 51.542969 55 C 51.542969 54.195313 52.195313 53.542969 53 53.542969 Z M 9 54 C 8.445313 54 8 54.449219 8 55 C 8 55.550781 8.445313 56 9 56 L 29 56 C 29.554688 56 30 55.550781 30 55 C 30 54.449219 29.554688 54 29 54 Z M 33 54 C 32.445313 54 32 54.449219 32 55 C 32 55.550781 32.445313 56 33 56 L 37 56 C 37.554688 56 38 55.550781 38 55 C 38 54.449219 37.554688 54 37 54 Z"/></svg>