<svg fill="#000000" xmlns="http://www.w3.org/2000/svg" viewBox="0 0 64 64" width="512px" height="512px"><path d="M 29.152344 0 C 27.992188 0 26.988281 0.785156 26.707031 1.90625 L 25.433594 7.007813 C 24.835938 7.21875 24.230469 7.46875 23.636719 7.757813 L 19.121094 5.050781 C 18.128906 4.453125 16.863281 4.609375 16.046875 5.429688 L 13.429688 8.046875 C 12.613281 8.863281 12.457031 10.125 13.050781 11.121094 L 15.761719 15.636719 C 15.46875 16.230469 15.21875 16.832031 15.007813 17.433594 L 9.90625 18.707031 C 8.785156 18.984375 8 19.992188 8 21.152344 L 8 24.847656 C 8 26.007813 8.785156 27.011719 9.90625 27.292969 L 15.003906 28.566406 C 15.214844 29.164063 15.46875 29.769531 15.761719 30.363281 L 13.050781 34.878906 C 12.457031 35.871094 12.609375 37.136719 13.425781 37.953125 L 16.046875 40.570313 C 16.863281 41.390625 18.128906 41.546875 19.121094 40.949219 L 23.636719 38.238281 C 24.230469 38.527344 24.832031 38.78125 25.433594 38.992188 L 26.707031 44.09375 C 26.988281 45.214844 27.992188 46 29.152344 46 L 32.847656 46 C 34.007813 46 35.011719 45.214844 35.292969 44.09375 L 36.566406 38.992188 C 37.164063 38.78125 37.769531 38.53125 38.363281 38.238281 L 42.878906 40.949219 C 43.871094 41.542969 45.136719 41.390625 45.953125 40.570313 L 48.574219 37.953125 C 49.390625 37.136719 49.546875 35.871094 48.949219 34.878906 L 46.238281 30.363281 C 46.53125 29.769531 46.78125 29.164063 46.992188 28.566406 L 52.09375 27.292969 C 53.214844 27.011719 54 26.007813 54 24.847656 L 54 21.152344 C 54 19.992188 53.214844 18.988281 52.09375 18.707031 L 46.992188 17.433594 C 46.78125 16.835938 46.53125 16.230469 46.238281 15.636719 L 48.949219 11.121094 C 49.542969 10.125 49.390625 8.863281 48.574219 8.046875 L 45.953125 5.429688 C 45.136719 4.609375 43.871094 4.453125 42.878906 5.050781 L 38.363281 7.757813 C 37.769531 7.46875 37.164063 7.21875 36.566406 7.007813 L 35.292969 1.90625 C 35.011719 0.785156 34.007813 0 32.847656 0 Z M 29.152344 2 L 32.847656 2 C 33.085938 2 33.292969 2.160156 33.351563 2.390625 L 34.660156 7.625 C 34.804688 8.199219 35.230469 8.660156 35.800781 8.859375 C 36.398438 9.058594 37 9.3125 37.59375 9.609375 C 38.132813 9.878906 38.765625 9.851563 39.277344 9.546875 L 43.910156 6.765625 C 44.109375 6.644531 44.375 6.675781 44.542969 6.84375 L 47.15625 9.460938 C 47.328125 9.628906 47.359375 9.886719 47.234375 10.09375 L 44.453125 14.722656 C 44.148438 15.238281 44.125 15.871094 44.394531 16.40625 C 44.6875 17.003906 44.941406 17.605469 45.140625 18.199219 C 45.335938 18.769531 45.800781 19.199219 46.378906 19.34375 L 51.609375 20.652344 C 51.839844 20.707031 52 20.914063 52 21.152344 L 52 24.847656 C 52 25.085938 51.839844 25.292969 51.609375 25.351563 L 46.375 26.65625 C 45.800781 26.804688 45.335938 27.230469 45.140625 27.800781 C 44.941406 28.394531 44.6875 28.996094 44.394531 29.589844 C 44.125 30.128906 44.144531 30.761719 44.453125 31.277344 L 47.234375 35.910156 C 47.355469 36.113281 47.324219 36.375 47.15625 36.542969 L 44.542969 39.15625 C 44.371094 39.324219 44.113281 39.359375 43.910156 39.234375 L 39.28125 36.457031 C 38.765625 36.148438 38.136719 36.125 37.59375 36.394531 C 37 36.6875 36.394531 36.9375 35.796875 37.140625 C 35.230469 37.335938 34.800781 37.800781 34.65625 38.375 L 33.351563 43.609375 C 33.292969 43.839844 33.085938 44 32.847656 44 L 29.152344 44 C 28.914063 44 28.707031 43.839844 28.648438 43.609375 L 27.34375 38.378906 C 27.199219 37.800781 26.769531 37.339844 26.199219 37.140625 C 25.605469 36.941406 25.003906 36.6875 24.410156 36.390625 C 24.160156 36.265625 23.890625 36.203125 23.621094 36.203125 C 23.308594 36.203125 23 36.289063 22.722656 36.453125 L 18.09375 39.234375 C 17.886719 39.355469 17.628906 39.324219 17.457031 39.15625 L 14.84375 36.542969 C 14.675781 36.371094 14.644531 36.113281 14.765625 35.910156 L 17.546875 31.277344 C 17.855469 30.761719 17.875 30.132813 17.609375 29.59375 C 17.3125 28.996094 17.0625 28.394531 16.859375 27.800781 C 16.664063 27.230469 16.199219 26.800781 15.625 26.65625 L 10.390625 25.351563 C 10.160156 25.296875 10 25.085938 10 24.847656 L 10 21.152344 C 10 20.914063 10.160156 20.707031 10.390625 20.648438 L 15.625 19.339844 C 16.203125 19.195313 16.664063 18.765625 16.859375 18.199219 C 17.058594 17.601563 17.3125 17 17.609375 16.40625 C 17.875 15.863281 17.851563 15.234375 17.546875 14.71875 L 14.765625 10.089844 C 14.644531 9.886719 14.675781 9.625 14.84375 9.457031 L 17.457031 6.84375 C 17.625 6.671875 17.886719 6.640625 18.09375 6.765625 L 22.722656 9.542969 C 23.238281 9.851563 23.867188 9.878906 24.410156 9.605469 C 25.003906 9.3125 25.605469 9.058594 26.203125 8.855469 C 26.769531 8.660156 27.199219 8.199219 27.34375 7.621094 L 28.652344 2.390625 C 28.707031 2.160156 28.914063 2 29.152344 2 Z M 30.785156 11.003906 C 29.398438 11.011719 28.011719 11.238281 26.699219 11.6875 C 26.175781 11.867188 25.898438 12.433594 26.078125 12.957031 C 26.21875 13.371094 26.609375 13.636719 27.023438 13.636719 C 27.128906 13.636719 27.238281 13.617188 27.347656 13.578125 C 29.558594 12.824219 32.03125 12.808594 34.253906 13.546875 C 34.78125 13.722656 35.34375 13.433594 35.515625 12.90625 C 35.691406 12.382813 35.40625 11.816406 34.882813 11.644531 C 33.566406 11.207031 32.171875 10.996094 30.785156 11.003906 Z M 38.066406 13.546875 C 37.8125 13.578125 37.566406 13.703125 37.394531 13.921875 C 37.054688 14.355469 37.128906 14.980469 37.5625 15.324219 C 38.082031 15.738281 38.570313 16.199219 39.007813 16.699219 C 39.203125 16.925781 39.480469 17.042969 39.761719 17.042969 C 39.992188 17.042969 40.226563 16.960938 40.417969 16.796875 C 40.832031 16.429688 40.875 15.796875 40.511719 15.382813 C 39.996094 14.789063 39.417969 14.246094 38.800781 13.757813 C 38.585938 13.585938 38.320313 13.515625 38.066406 13.546875 Z M 31 16 C 27.140625 16 24 19.140625 24 23 C 24 26.859375 27.140625 30 31 30 C 34.859375 30 38 26.859375 38 23 C 38 19.140625 34.859375 16 31 16 Z M 19.78125 17.589844 C 19.390625 17.601563 19.027344 17.84375 18.878906 18.230469 C 18.679688 18.746094 18.9375 19.328125 19.453125 19.523438 L 21.15625 20.171875 C 21.273438 20.21875 21.394531 20.238281 21.511719 20.238281 C 21.914063 20.238281 22.292969 19.996094 22.445313 19.597656 C 22.644531 19.082031 22.386719 18.503906 21.871094 18.308594 L 20.171875 17.65625 C 20.042969 17.605469 19.910156 17.585938 19.78125 17.589844 Z M 31 18 C 33.757813 18 36 20.242188 36 23 C 36 25.757813 33.757813 28 31 28 C 28.242188 28 26 25.757813 26 23 C 26 20.242188 28.242188 18 31 18 Z M 31 21 C 29.894531 21 29 21.894531 29 23 C 29 24.105469 29.894531 25 31 25 C 32.105469 25 33 24.105469 33 23 C 33 21.894531 32.105469 21 31 21 Z M 20.828125 22.003906 L 19.011719 22.035156 C 18.457031 22.046875 18.015625 22.5 18.027344 23.050781 C 18.039063 23.597656 18.484375 24.035156 19.027344 24.035156 L 19.046875 24.035156 L 20.863281 24.003906 C 21.417969 23.992188 21.859375 23.535156 21.847656 22.984375 C 21.835938 22.433594 21.347656 22.015625 20.828125 22.003906 Z M 21.640625 25.738281 C 21.511719 25.742188 21.378906 25.765625 21.25 25.816406 L 19.578125 26.53125 C 19.066406 26.746094 18.832031 27.332031 19.046875 27.84375 C 19.207031 28.222656 19.578125 28.453125 19.96875 28.453125 C 20.097656 28.453125 20.230469 28.425781 20.359375 28.371094 L 22.03125 27.660156 C 22.539063 27.441406 22.777344 26.855469 22.5625 26.347656 C 22.402344 25.96875 22.03125 25.738281 21.640625 25.738281 Z M 23.777344 28.90625 C 23.519531 28.90625 23.265625 29.003906 23.070313 29.199219 L 21.78125 30.484375 C 21.390625 30.875 21.390625 31.507813 21.78125 31.898438 C 21.976563 32.09375 22.234375 32.191406 22.488281 32.191406 C 22.746094 32.191406 23.003906 32.09375 23.199219 31.898438 L 24.484375 30.609375 C 24.875 30.21875 24.875 29.589844 24.484375 29.199219 C 24.289063 29 24.035156 28.902344 23.777344 28.90625 Z M 7.472656 41.875 C 6.761719 41.847656 6.066406 42.109375 5.546875 42.628906 L 4.695313 43.484375 C 4 44.175781 3.757813 45.183594 4.070313 46.121094 L 6.007813 51.953125 L 4.070313 57.757813 C 3.757813 58.691406 4 59.699219 4.695313 60.394531 L 5.546875 61.246094 C 6.238281 61.9375 7.25 62.179688 8.179688 61.867188 L 14.015625 59.933594 L 19.816406 61.871094 C 20.089844 61.960938 20.367188 62.003906 20.640625 62.003906 C 21.3125 62.003906 21.964844 61.738281 22.453125 61.246094 L 23.308594 60.394531 C 24 59.703125 24.242188 58.691406 23.929688 57.757813 L 21.996094 51.921875 L 23.929688 46.121094 C 24.242188 45.1875 24 44.175781 23.308594 43.484375 L 22.453125 42.628906 C 21.761719 41.9375 20.75 41.699219 19.816406 42.011719 L 13.984375 43.941406 L 8.179688 42.007813 C 7.949219 41.929688 7.710938 41.886719 7.472656 41.875 Z M 41.472656 41.875 C 40.761719 41.847656 40.066406 42.109375 39.546875 42.628906 L 38.691406 43.484375 C 38 44.175781 37.757813 45.183594 38.070313 46.121094 L 40.003906 51.953125 L 38.070313 57.757813 C 37.757813 58.691406 38 59.699219 38.691406 60.394531 L 39.546875 61.246094 C 40.238281 61.9375 41.25 62.179688 42.183594 61.867188 L 48.015625 59.933594 L 53.820313 61.871094 C 54.089844 61.960938 54.367188 62.003906 54.640625 62.003906 C 55.3125 62.003906 55.964844 61.738281 56.453125 61.246094 L 57.308594 60.394531 C 58 59.703125 58.242188 58.691406 57.929688 57.757813 L 55.996094 51.921875 L 57.929688 46.121094 C 58.242188 45.1875 58 44.175781 57.308594 43.484375 L 56.453125 42.628906 C 55.761719 41.9375 54.75 41.699219 53.816406 42.011719 L 47.984375 43.941406 L 42.183594 42.007813 C 41.949219 41.929688 41.710938 41.886719 41.472656 41.875 Z M 54.765625 43.886719 C 54.867188 43.910156 54.964844 43.964844 55.042969 44.042969 L 55.890625 44.894531 C 56.046875 45.050781 56.101563 45.277344 56.03125 45.484375 L 54.097656 51.285156 C 53.957031 51.707031 53.957031 52.171875 54.097656 52.585938 L 56.03125 58.386719 C 56.101563 58.597656 56.046875 58.824219 55.890625 58.980469 L 55.039063 59.832031 C 54.882813 59.984375 54.660156 60.035156 54.453125 59.96875 L 48.644531 58.035156 C 48.4375 57.964844 48.21875 57.933594 48 57.933594 C 47.78125 57.933594 47.5625 57.964844 47.351563 58.035156 L 41.546875 59.96875 C 41.339844 60.039063 41.113281 59.984375 40.957031 59.828125 L 40.109375 58.980469 C 39.953125 58.824219 39.898438 58.597656 39.96875 58.390625 L 41.902344 52.589844 C 42.042969 52.167969 42.042969 51.707031 41.902344 51.285156 L 39.96875 45.484375 C 39.898438 45.277344 39.953125 45.050781 40.109375 44.894531 L 40.957031 44.042969 C 41.113281 43.886719 41.339844 43.832031 41.546875 43.902344 L 47.347656 45.839844 C 47.769531 45.980469 48.230469 45.980469 48.648438 45.839844 L 54.453125 43.90625 C 54.554688 43.867188 54.664063 43.863281 54.765625 43.886719 Z M 7.234375 43.890625 C 7.335938 43.863281 7.445313 43.871094 7.546875 43.90625 L 13.347656 45.839844 C 13.769531 45.980469 14.230469 45.980469 14.648438 45.839844 L 20.453125 43.90625 C 20.65625 43.832031 20.886719 43.886719 21.042969 44.046875 L 21.890625 44.894531 C 22.046875 45.054688 22.101563 45.277344 22.03125 45.484375 L 20.097656 51.289063 C 19.957031 51.710938 19.957031 52.171875 20.097656 52.589844 L 22.03125 58.390625 C 22.101563 58.597656 22.046875 58.824219 21.890625 58.980469 L 21.039063 59.832031 C 20.882813 59.984375 20.660156 60.039063 20.453125 59.972656 L 14.644531 58.035156 C 14.4375 57.964844 14.21875 57.933594 14 57.933594 C 13.78125 57.933594 13.5625 57.964844 13.351563 58.035156 L 7.546875 59.96875 C 7.339844 60.039063 7.113281 59.984375 6.960938 59.828125 L 6.109375 58.980469 C 5.953125 58.824219 5.898438 58.597656 5.96875 58.390625 L 7.898438 52.589844 C 8.042969 52.167969 8.042969 51.707031 7.902344 51.289063 L 5.96875 45.484375 C 5.898438 45.277344 5.953125 45.050781 6.109375 44.894531 L 6.960938 44.046875 C 7.035156 43.96875 7.132813 43.914063 7.234375 43.890625 Z M 14 50 C 12.894531 50 12 50.894531 12 52 C 12 53.105469 12.894531 54 14 54 C 15.105469 54 16 53.105469 16 52 C 16 50.894531 15.105469 50 14 50 Z M 48 50 C 46.894531 50 46 50.894531 46 52 C 46 53.105469 46.894531 54 48 54 C 49.105469 54 50 53.105469 50 52 C 50 50.894531 49.105469 50 48 50 Z"/></svg>