<svg xmlns="http://www.w3.org/2000/svg" viewBox="0 0 64 64" width="512px" height="512px"><path fill="#8b8e98" d="M15,43c0,0,34,3.423,34,9V39c0,0,0-5.654-34-9V43z"/><path fill="#8d6c9f" d="M49,53c-0.552,0-1-0.448-1-1c0-2.794-17.115-6.395-33.1-8.005C14.389,43.943,14,43.514,14,43V30 c0-0.282,0.119-0.551,0.329-0.741c0.209-0.189,0.489-0.282,0.77-0.254C47.483,32.192,50,37.461,50,39v13C50,52.552,49.552,53,49,53 z M16,42.101c2.418,0.266,9.335,1.073,16.18,2.324c9.081,1.659,13.61,3.25,15.82,4.684v-9.996c-0.216-0.44-3.163-5.063-32-8.007 V42.101z M48.015,39.146L48.015,39.146L48.015,39.146z"/><path fill="#8b8e98" d="M15,25c0,0,34,3.423,34,9V21c0,0,0-5.654-34-9V25z"/><path fill="#8d6c9f" d="M49,35c-0.552,0-1-0.448-1-1c0-2.794-17.115-6.395-33.1-8.005C14.389,25.943,14,25.514,14,25V12 c0-0.282,0.119-0.551,0.329-0.741c0.209-0.189,0.489-0.284,0.77-0.254C47.483,14.192,50,19.461,50,21v13C50,34.552,49.552,35,49,35 z M16,24.101c2.418,0.266,9.335,1.073,16.18,2.324c9.081,1.659,13.61,3.25,15.82,4.684v-9.996c-0.216-0.44-3.163-5.063-32-8.007 V24.101z M48.015,21.146L48.015,21.146L48.015,21.146z"/><path fill="#f283a5" d="M15,48c0,0,34-3.423,34-9v13c0,0,0,5.654-34,9V48z"/><path fill="#ed7899" d="M15,54.5V61c34-3.346,34-9,34-9v-6.275C49,45.725,48,51.125,15,54.5z"/><path fill="#8d6c9f" d="M15,62c-0.247,0-0.487-0.092-0.671-0.259C14.119,61.551,14,61.282,14,61V48 c0-0.514,0.389-0.943,0.9-0.995C30.885,45.395,48,41.794,48,39c0-0.552,0.448-1,1-1s1,0.448,1,1v13 c0,1.539-2.517,6.808-34.902,9.995C15.065,61.999,15.033,62,15,62z M16,48.899v10.996c28.837-2.945,31.784-7.567,32-8.007v-9.996 c-2.21,1.435-6.739,3.025-15.82,4.684C25.335,47.826,18.418,48.633,16,48.899z M48.015,51.854L48.015,51.854L48.015,51.854z"/><path fill="#8d6c9f" d="M21.999,54.693c-0.495,0-0.925-0.368-0.99-0.872c-0.071-0.548,0.316-1.049,0.864-1.12 c5.336-0.687,10.015-1.481,13.908-2.36c0.537-0.121,1.074,0.216,1.196,0.755c0.122,0.539-0.217,1.074-0.755,1.196 c-3.953,0.893-8.695,1.698-14.092,2.393C22.084,54.69,22.042,54.693,21.999,54.693z"/><path fill="#8d6c9f" d="M40,51.308c-0.436,0-0.837-0.288-0.961-0.728c-0.151-0.531,0.158-1.084,0.689-1.234 c0.707-0.2,1.364-0.399,1.962-0.595c0.528-0.171,1.09,0.116,1.261,0.64c0.171,0.525-0.115,1.09-0.64,1.261 c-0.622,0.203-1.304,0.409-2.038,0.617C40.182,51.295,40.09,51.308,40,51.308z"/><g><path fill="#f283a5" d="M15,30c0,0,34-3.423,34-9v13c0,0,0,5.654-34,9V30z"/><path fill="#ed7899" d="M15,36.5V43c34-3.346,34-9,34-9v-6.275C49,27.725,48,33.125,15,36.5z"/><path fill="#8d6c9f" d="M15,44c-0.247,0-0.487-0.092-0.671-0.259C14.119,43.551,14,43.282,14,43V30 c0-0.514,0.389-0.943,0.9-0.995C30.885,27.395,48,23.794,48,21c0-0.552,0.448-1,1-1s1,0.448,1,1v13 c0,1.539-2.517,6.808-34.902,9.995C15.065,43.999,15.033,44,15,44z M16,30.899v10.996c28.837-2.945,31.784-7.567,32-8.007v-9.996 c-2.21,1.435-6.739,3.025-15.82,4.684C25.335,29.826,18.418,30.633,16,30.899z M48.015,33.854L48.015,33.854L48.015,33.854z"/></g><g><path fill="#f283a5" d="M49,16c0,0,0,5.654-34,9V12c0,0,32-3,34-9V16z"/><path fill="#ed7899" d="M15,18.5V25c34-3.346,34-9,34-9V9.575C49,9.575,47.875,15.375,15,18.5z"/><path fill="#8d6c9f" d="M15,26c-0.247,0-0.487-0.092-0.671-0.259C14.119,25.551,14,25.282,14,25V12 c0-0.516,0.393-0.947,0.907-0.996c12.121-1.137,31.838-4.401,33.145-8.321c0.155-0.465,0.624-0.748,1.109-0.671 C49.645,2.091,50,2.51,50,3v13c0,1.539-2.517,6.808-34.902,9.995C15.065,25.999,15.033,26,15,26z M16,12.908v10.986 c28.837-2.945,31.784-7.567,32-8.007V5.57C41.578,10.057,22.104,12.302,16,12.908z M48.015,15.854L48.015,15.854L48.015,15.854z"/><path fill="#8d6c9f" d="M22,19.741c-0.552,0-1-0.448-1-1v-2c0-0.552,0.448-1,1-1s1,0.448,1,1v2 C23,19.293,22.552,19.741,22,19.741z"/><path fill="#8d6c9f" d="M27,19.053c-0.552,0-1-0.448-1-1v-2c0-0.552,0.448-1,1-1s1,0.448,1,1v2 C28,18.605,27.552,19.053,27,19.053z"/><path fill="#8d6c9f" d="M32,18.22c-0.552,0-1-0.448-1-1v-2c0-0.552,0.448-1,1-1s1,0.448,1,1v2 C33,17.772,32.552,18.22,32,18.22z"/><path fill="#8d6c9f" d="M37,17.16c-0.552,0-1-0.448-1-1v-2c0-0.552,0.448-1,1-1s1,0.448,1,1v2 C38,16.712,37.552,17.16,37,17.16z"/><path fill="#8d6c9f" d="M42,15.73c-0.552,0-1-0.448-1-1v-2c0-0.552,0.448-1,1-1s1,0.448,1,1v2 C43,15.282,42.552,15.73,42,15.73z"/></g></svg>