<svg fill="#000000" xmlns="http://www.w3.org/2000/svg" viewBox="0 0 64 64" width="512px" height="512px"><path d="M 59.589844 1.796875 C 59.359375 1.777344 59.125 1.785156 58.890625 1.820313 L 52.753906 2.71875 C 45.363281 3.800781 38.613281 7.511719 33.746094 13.171875 L 24.925781 23.417969 L 9.582031 27.234375 C 8.5625 27.488281 7.664063 28.046875 6.980469 28.847656 L 3.703125 32.703125 C 3.191406 33.304688 3.078125 34.125 3.410156 34.839844 C 3.742188 35.554688 4.4375 36 5.226563 36 L 15.414063 36 C 15.460938 36.398438 15.589844 36.78125 15.792969 37.136719 L 13.636719 41.105469 C 13.609375 41.15625 13.585938 41.210938 13.566406 41.265625 C 13.46875 41.5625 13.417969 41.867188 13.410156 42.167969 L 12.960938 42.304688 C 9.351563 43.410156 6.609375 46.1875 5.621094 49.734375 C 4.796875 52.699219 4.558594 55.753906 4.492188 57.316406 C 4.472656 57.875 4.683594 58.417969 5.078125 58.8125 C 5.449219 59.183594 5.960938 59.394531 6.484375 59.394531 C 6.515625 59.394531 6.542969 59.394531 6.570313 59.390625 C 8.121094 59.328125 11.164063 59.09375 14.117188 58.277344 C 17.640625 57.300781 20.5 54.457031 21.574219 50.859375 L 21.640625 50.632813 C 21.695313 50.636719 21.746094 50.644531 21.800781 50.644531 C 22.144531 50.644531 22.492188 50.589844 22.839844 50.476563 C 22.890625 50.460938 22.9375 50.4375 22.984375 50.410156 L 26.964844 48.3125 C 27.289063 48.503906 27.636719 48.628906 28 48.6875 L 28 58.777344 C 28 59.566406 28.441406 60.261719 29.15625 60.59375 C 29.429688 60.71875 29.71875 60.78125 30.003906 60.78125 C 30.46875 60.78125 30.921875 60.617188 31.292969 60.300781 L 35.152344 57.019531 C 35.953125 56.335938 36.507813 55.4375 36.765625 54.417969 L 40.515625 39.332031 L 50.9375 30.363281 C 56.597656 25.496094 60.308594 18.742188 61.390625 11.355469 L 62.285156 5.21875 C 62.429688 4.277344 62.121094 3.34375 61.445313 2.667969 C 60.9375 2.160156 60.28125 1.859375 59.589844 1.796875 Z M 59.328125 3.789063 C 59.589844 3.789063 59.839844 3.890625 60.03125 4.078125 C 60.253906 4.304688 60.359375 4.617188 60.3125 4.933594 L 59.414063 11.066406 C 58.402344 17.980469 54.929688 24.296875 49.636719 28.851563 L 39.191406 37.839844 C 39.046875 37.914063 38.917969 38.015625 38.824219 38.15625 L 29.128906 46.496094 C 28.738281 46.835938 28.140625 46.8125 27.769531 46.445313 L 17.667969 36.34375 C 17.300781 35.972656 17.277344 35.375 17.613281 34.984375 L 35.261719 14.476563 C 37.425781 11.960938 39.988281 9.863281 42.824219 8.238281 L 47.292969 12.707031 C 47.488281 12.902344 47.742188 13 48 13 C 48.257813 13 48.511719 12.902344 48.707031 12.707031 C 49.097656 12.316406 49.097656 11.683594 48.707031 11.292969 L 44.675781 7.261719 C 47.300781 6 50.117188 5.125 53.042969 4.695313 L 59.175781 3.796875 C 59.226563 3.792969 59.277344 3.789063 59.328125 3.789063 Z M 51 14 C 50.746094 14 50.488281 14.097656 50.292969 14.292969 C 49.902344 14.683594 49.902344 15.316406 50.292969 15.707031 L 53.292969 18.707031 C 53.488281 18.902344 53.742188 19 54 19 C 54.257813 19 54.511719 18.902344 54.707031 18.707031 C 55.097656 18.316406 55.097656 17.683594 54.707031 17.292969 L 51.707031 14.292969 C 51.511719 14.097656 51.253906 14 51 14 Z M 43 15 C 39.691406 15 37 17.691406 37 21 C 37 24.308594 39.691406 27 43 27 C 46.308594 27 49 24.308594 49 21 C 49 17.691406 46.308594 15 43 15 Z M 43 17 C 45.207031 17 47 18.792969 47 21 C 47 23.207031 45.207031 25 43 25 C 40.792969 25 39 23.207031 39 21 C 39 18.792969 40.792969 17 43 17 Z M 22.671875 26.039063 L 16.101563 33.675781 C 16.015625 33.78125 15.945313 33.890625 15.875 34 L 5.226563 34 L 8.507813 30.140625 C 8.914063 29.664063 9.453125 29.328125 10.066406 29.175781 Z M 35.277344 26.421875 C 35.019531 26.421875 34.765625 26.519531 34.566406 26.714844 C 34.175781 27.105469 34.175781 27.738281 34.566406 28.128906 L 35.984375 29.542969 C 36.175781 29.738281 36.433594 29.835938 36.6875 29.835938 C 36.945313 29.835938 37.203125 29.738281 37.394531 29.542969 C 37.789063 29.152344 37.789063 28.519531 37.394531 28.128906 L 35.984375 26.714844 C 35.785156 26.519531 35.53125 26.421875 35.277344 26.421875 Z M 31.738281 29.957031 C 31.484375 29.957031 31.226563 30.054688 31.03125 30.25 C 30.640625 30.640625 30.640625 31.273438 31.03125 31.664063 L 32.449219 33.078125 C 32.640625 33.273438 32.898438 33.371094 33.15625 33.371094 C 33.410156 33.371094 33.667969 33.273438 33.859375 33.078125 C 34.253906 32.6875 34.253906 32.054688 33.859375 31.660156 L 32.445313 30.25 C 32.25 30.054688 31.992188 29.957031 31.738281 29.957031 Z M 28.203125 33.496094 C 27.949219 33.496094 27.691406 33.589844 27.496094 33.785156 C 27.105469 34.179688 27.105469 34.808594 27.496094 35.203125 L 28.910156 36.613281 C 29.105469 36.808594 29.359375 36.90625 29.617188 36.90625 C 29.875 36.90625 30.128906 36.808594 30.324219 36.613281 C 30.714844 36.222656 30.714844 35.59375 30.324219 35.203125 L 28.910156 33.785156 C 28.714844 33.589844 28.457031 33.496094 28.203125 33.496094 Z M 24.671875 37.03125 C 24.414063 37.03125 24.160156 37.125 23.964844 37.324219 C 23.570313 37.710938 23.570313 38.34375 23.964844 38.734375 L 25.375 40.152344 C 25.570313 40.34375 25.824219 40.441406 26.082031 40.441406 C 26.339844 40.441406 26.59375 40.34375 26.789063 40.152344 C 27.179688 39.761719 27.179688 39.128906 26.789063 38.734375 L 25.375 37.324219 C 25.179688 37.125 24.925781 37.03125 24.671875 37.03125 Z M 17.214844 38.714844 L 25.386719 46.890625 L 22.136719 48.601563 C 21.753906 48.710938 21.386719 48.632813 21.148438 48.394531 L 15.714844 42.964844 C 15.453125 42.699219 15.351563 42.324219 15.441406 41.96875 Z M 37.894531 41.59375 L 34.824219 53.9375 C 34.671875 54.546875 34.339844 55.089844 33.859375 55.5 L 30 58.777344 L 30 48.320313 C 30.152344 48.230469 30.296875 48.128906 30.4375 48.011719 Z M 14.03125 44.066406 C 14.113281 44.175781 14.203125 44.28125 14.300781 44.375 L 19.734375 49.8125 C 19.75 49.828125 19.769531 49.835938 19.785156 49.855469 L 19.65625 50.285156 C 18.777344 53.234375 16.449219 55.554688 13.582031 56.347656 C 10.824219 57.113281 7.953125 57.332031 6.492188 57.402344 C 6.554688 55.929688 6.777344 53.042969 7.546875 50.269531 C 8.351563 47.386719 10.59375 45.121094 13.546875 44.21875 Z"/></svg>