<?xml version="1.0" encoding="UTF-8"?>
<svg xmlns="http://www.w3.org/2000/svg" xmlns:xlink="http://www.w3.org/1999/xlink" width="512pt" height="512pt" viewBox="0 0 512 512" version="1.1">
<g id="surface5525907">
<path style=" stroke:none;fill-rule:nonzero;fill:rgb(0%,0%,0%);fill-opacity:1;" d="M 120 16 C 106.78125 16 96 26.78125 96 40 L 96 216 C 96 229.21875 106.78125 240 120 240 L 207.78125 240 L 103.25 317.59375 C 102.34375 318.25 101.625 319.09375 101.09375 320 L 24 320 C 10.78125 320 0 330.78125 0 344 L 0 440 C 0 453.21875 10.78125 464 24 464 L 80 464 L 80 480 L 56 480 C 51.5625 480 48 483.5625 48 488 C 48 492.4375 51.5625 496 56 496 L 168 496 C 172.4375 496 176 492.4375 176 488 C 176 483.5625 172.4375 480 168 480 L 144 480 L 144 464 L 200 464 C 213.21875 464 224 453.21875 224 440 L 224 344 C 224 330.78125 213.21875 320 200 320 L 126.8125 320 L 234.625 240 L 277.28125 240 L 381.625 320 L 312 320 C 298.78125 320 288 330.78125 288 344 L 288 440 C 288 453.21875 298.78125 464 312 464 L 368 464 L 368 480 L 344 480 C 339.5625 480 336 483.5625 336 488 C 336 492.4375 339.5625 496 344 496 L 456 496 C 460.4375 496 464 492.4375 464 488 C 464 483.5625 460.4375 480 456 480 L 432 480 L 432 464 L 488 464 C 501.21875 464 512 453.21875 512 440 L 512 344 C 512 330.78125 501.21875 320 488 320 L 406.90625 320 C 406.40625 319.125 405.71875 318.3125 404.875 317.625 L 303.59375 240 L 392 240 C 405.21875 240 416 229.21875 416 216 L 416 40 C 416 26.78125 405.21875 16 392 16 Z M 120 32 L 392 32 C 396.40625 32 400 35.59375 400 40 L 400 48 L 112 48 L 112 40 C 112 35.59375 115.59375 32 120 32 Z M 112 64 L 400 64 L 400 216 C 400 220.40625 396.40625 224 392 224 L 120 224 C 115.59375 224 112 220.40625 112 216 Z M 168.3125 96.375 C 164.46875 96.375 160.625 99.5625 160.625 104.375 C 160.625 109.15625 163.5 112.375 168.3125 112.375 L 184 112.375 C 188.8125 112.375 191.6875 109.15625 191.6875 104.375 C 191.6875 99.5625 188.8125 96.375 184 96.375 Z M 216 96.375 C 211.5625 96.375 208 99.9375 208 104.375 C 208 108.78125 211.5625 112.375 216 112.375 L 344 112.375 C 348.4375 112.375 352 108.78125 352 104.375 C 352 99.9375 348.4375 96.375 344 96.375 Z M 168.3125 128.375 C 164.46875 128.375 160.625 131.5625 160.625 136.375 C 160.625 141.15625 163.5 144.375 168.3125 144.375 L 184 144.375 C 188.8125 144.375 191.6875 141.15625 191.6875 136.375 C 191.6875 131.5625 188.8125 128.375 184 128.375 Z M 216 128.375 C 211.5625 128.375 208 131.9375 208 136.375 C 208 140.78125 211.5625 144.375 216 144.375 L 344 144.375 C 348.4375 144.375 352 140.78125 352 136.375 C 352 131.9375 348.4375 128.375 344 128.375 Z M 136 176 C 131.5625 176 128 179.5625 128 184 L 128 200 C 128 204.4375 131.5625 208 136 208 C 140.4375 208 144 204.4375 144 200 L 144 184 C 144 179.5625 140.4375 176 136 176 Z M 176 176 C 171.5625 176 168 179.5625 168 184 L 168 200 C 168 204.4375 171.5625 208 176 208 C 180.4375 208 184 204.4375 184 200 L 184 184 C 184 179.5625 180.4375 176 176 176 Z M 216 176 C 211.5625 176 208 179.5625 208 184 L 208 200 C 208 204.4375 211.5625 208 216 208 C 220.4375 208 224 204.4375 224 200 L 224 184 C 224 179.5625 220.4375 176 216 176 Z M 256 176 C 251.5625 176 248 179.5625 248 184 L 248 200 C 248 204.4375 251.5625 208 256 208 C 260.4375 208 264 204.4375 264 200 L 264 184 C 264 179.5625 260.4375 176 256 176 Z M 296 176 C 291.5625 176 288 179.5625 288 184 L 288 200 C 288 204.4375 291.5625 208 296 208 C 300.4375 208 304 204.4375 304 200 L 304 184 C 304 179.5625 300.4375 176 296 176 Z M 336 176 C 331.5625 176 328 179.5625 328 184 L 328 200 C 328 204.4375 331.5625 208 336 208 C 340.4375 208 344 204.4375 344 200 L 344 184 C 344 179.5625 340.4375 176 336 176 Z M 376 176 C 371.5625 176 368 179.5625 368 184 L 368 200 C 368 204.4375 371.5625 208 376 208 C 380.4375 208 384 204.4375 384 200 L 384 184 C 384 179.5625 380.4375 176 376 176 Z M 24 336 L 200 336 C 204.40625 336 208 339.59375 208 344 L 208 416 L 184 416 C 179.5625 416 176 419.5625 176 424 C 176 428.4375 179.5625 432 184 432 L 208 432 L 208 440 C 208 444.40625 204.40625 448 200 448 L 24 448 C 19.59375 448 16 444.40625 16 440 L 16 432 L 152.65625 432 C 157.09375 432 160.65625 428.4375 160.65625 424 C 160.65625 419.5625 157.09375 416 152.65625 416 L 16 416 L 16 344 C 16 339.59375 19.59375 336 24 336 Z M 312 336 L 488 336 C 492.40625 336 496 339.59375 496 344 L 496 416 L 472 416 C 467.5625 416 464 419.5625 464 424 C 464 428.4375 467.5625 432 472 432 L 496 432 L 496 440 C 496 444.40625 492.40625 448 488 448 L 312 448 C 307.59375 448 304 444.40625 304 440 L 304 432 L 440.65625 432 C 445.09375 432 448.65625 428.4375 448.65625 424 C 448.65625 419.5625 445.09375 416 440.65625 416 L 304 416 L 304 344 C 304 339.59375 307.59375 336 312 336 Z M 96 464 L 128 464 L 128 480 L 96 480 Z M 384 464 L 416 464 L 416 480 L 384 480 Z M 384 464 "/>
</g>
</svg>
