<svg fill="#000000" xmlns="http://www.w3.org/2000/svg" viewBox="0 0 64 64" width="256px" height="256px"><path d="M 48.970703 2 A 1.0001 1.0001 0 0 0 48.050781 2.6835938 C 47.92332 3.0659789 47.407092 3.6635445 46.441406 4.2578125 C 45.475721 4.8520805 44.117316 5.4443757 42.519531 5.9921875 C 39.323962 7.0878112 35.168202 8.0205543 31.070312 8.765625 C 22.874536 10.255766 14.90625 11.003906 14.90625 11.003906 A 1.0001 1.0001 0 0 0 14 12 L 14 25 A 1.0001 1.0001 0 0 0 14.900391 25.994141 A 1.0001 1.0001 0 0 0 14.929688 25.998047 C 14.929704 25.998049 14.933594 25.998045 14.933594 25.998047 C 14.974473 26.002203 20.168146 26.531568 26.464844 27.5 C 20.135097 28.472783 14.900391 29.005859 14.900391 29.005859 A 1.0001 1.0001 0 0 0 14 30 L 14 43 A 1.0001 1.0001 0 0 0 14.900391 43.994141 A 1.0001 1.0001 0 0 0 14.927734 43.998047 C 14.927759 43.99805 14.931613 43.998043 14.931641 43.998047 C 14.979803 44.003866 20.063671 44.618332 25.962891 45.501953 C 20.036445 46.389045 14.900391 47.005859 14.900391 47.005859 A 1.0001 1.0001 0 0 0 14 48 L 14 61 A 1.0001 1.0001 0 0 0 15.097656 61.996094 C 32.152292 60.317717 40.724765 58.069824 45.146484 56.164062 C 47.357344 55.211182 48.540032 54.340524 49.207031 53.609375 C 49.540531 53.243801 49.741955 52.911043 49.857422 52.630859 C 49.972889 52.350676 50 52 50 52 L 50 39 L 49 39 L 50 38.992188 C 50 38.992188 49.978569 38.704033 49.898438 38.478516 C 49.818309 38.252987 49.679567 37.98352 49.453125 37.6875 C 49.179646 37.329989 48.758137 36.928784 48.169922 36.5 C 48.596519 36.187169 48.955136 35.885497 49.207031 35.609375 C 49.540531 35.243801 49.741955 34.911043 49.857422 34.630859 C 49.972889 34.350676 50 34 50 34 L 50 21 L 49 21 L 50 20.992188 C 50 20.992188 49.978569 20.704033 49.898438 20.478516 C 49.818308 20.252999 49.679567 19.98352 49.453125 19.6875 C 49.211318 19.371394 48.503199 18.956909 48.021484 18.583984 C 48.501097 18.242877 48.934612 17.907995 49.207031 17.609375 C 49.540531 17.243801 49.741955 16.911043 49.857422 16.630859 C 49.972889 16.350672 50 16 50 16 L 50 3 A 1.0001 1.0001 0 0 0 48.970703 2 z M 48 5.5683594 L 48 15.882812 C 47.98002 15.929642 47.92132 16.052509 47.730469 16.261719 C 47.334968 16.695257 46.392656 17.447302 44.353516 18.326172 C 40.375347 20.040762 32.12397 22.218983 16 23.873047 L 16 12.894531 C 17.254545 12.771716 23.87021 12.108825 31.429688 10.734375 C 35.581798 9.9794457 39.801038 9.0371888 43.167969 7.8828125 C 44.851434 7.3056243 46.321154 6.6791695 47.488281 5.9609375 C 47.683632 5.8407218 47.819901 5.6946804 48 5.5683594 z M 41.984375 11.716797 A 1.0001 1.0001 0 0 0 41 12.730469 L 41 14.730469 A 1.0001 1.0001 0 1 0 43 14.730469 L 43 12.730469 A 1.0001 1.0001 0 0 0 41.984375 11.716797 z M 36.984375 13.146484 A 1.0001 1.0001 0 0 0 36 14.160156 L 36 16.160156 A 1.0001 1.0001 0 1 0 38 16.160156 L 38 14.160156 A 1.0001 1.0001 0 0 0 36.984375 13.146484 z M 31.984375 14.205078 A 1.0001 1.0001 0 0 0 31 15.220703 L 31 17.220703 A 1.0001 1.0001 0 1 0 33 17.220703 L 33 15.220703 A 1.0001 1.0001 0 0 0 31.984375 14.205078 z M 26.984375 15.039062 A 1.0001 1.0001 0 0 0 26 16.052734 L 26 18.052734 A 1.0001 1.0001 0 1 0 28 18.052734 L 28 16.052734 A 1.0001 1.0001 0 0 0 26.984375 15.039062 z M 21.984375 15.726562 A 1.0001 1.0001 0 0 0 21 16.740234 L 21 18.740234 A 1.0001 1.0001 0 1 0 23 18.740234 L 23 16.740234 A 1.0001 1.0001 0 0 0 21.984375 15.726562 z M 46.164062 19.632812 C 47.02695 20.160349 47.67792 20.659427 47.865234 20.904297 C 47.949724 21.014746 47.960434 21.051535 47.976562 21.087891 C 47.926507 21.302778 47.688966 21.680125 46.980469 22.158203 C 46.175353 22.701479 44.907009 23.277856 43.359375 23.814453 C 40.421492 24.833078 36.466986 25.733075 32.460938 26.482422 C 29.082448 25.860544 25.973071 25.4322 23.091797 25.037109 C 34.758038 23.513926 41.509048 21.731799 45.146484 20.164062 C 45.577634 19.978237 45.807245 19.811912 46.164062 19.632812 z M 48 23.861328 L 48 33.882812 C 47.98002 33.929642 47.92132 34.052509 47.730469 34.261719 C 47.334968 34.695257 46.392656 35.447302 44.353516 36.326172 C 40.375347 38.040762 32.12397 40.218983 16 41.873047 L 16 30.888672 C 17.262554 30.757132 24.34947 30.00473 32.179688 28.574219 C 36.455711 27.793027 40.735894 26.840275 44.015625 25.703125 C 45.616292 25.148141 46.955359 24.550883 48 23.861328 z M 46.257812 37.636719 C 47.193852 38.194909 47.670288 38.64945 47.865234 38.904297 C 47.932854 38.992697 47.934048 39.009487 47.955078 39.050781 C 47.936308 39.251294 47.750208 39.638799 46.980469 40.158203 C 46.175353 40.701479 44.907009 41.277856 43.359375 41.814453 C 40.413423 42.835875 36.394349 43.722074 32.376953 44.472656 C 29.177478 43.884375 26.12094 43.428615 23.353516 43.042969 C 34.990892 41.520965 41.51384 39.729733 45.146484 38.164062 C 45.56354 37.984312 45.910491 37.810233 46.257812 37.636719 z M 48 41.861328 L 48 51.882812 C 47.98002 51.929642 47.92132 52.052509 47.730469 52.261719 C 47.334968 52.695257 46.392656 53.447302 44.353516 54.326172 C 40.375347 56.040762 32.12397 58.218983 16 59.873047 L 16 48.888672 C 17.262554 48.757132 24.34947 48.00473 32.179688 46.574219 C 36.455711 45.793027 40.735894 44.840275 44.015625 43.703125 C 45.616292 43.148141 46.955359 42.550883 48 41.861328 z M 41.955078 48.697266 A 1.0001 1.0001 0 0 0 41.689453 48.75 C 41.094078 48.944229 40.435705 49.14478 39.726562 49.345703 A 1.0001 1.0001 0 1 0 40.273438 51.269531 C 41.004295 51.062455 41.685922 50.856115 42.310547 50.652344 A 1.0001 1.0001 0 0 0 42.054688 48.697266 A 1.0001 1.0001 0 0 0 41.955078 48.697266 z M 36.046875 50.314453 A 1.0001 1.0001 0 0 0 35.779297 50.341797 C 32.22778 51.143337 27.688921 51.952407 21.873047 52.701172 A 1.0002765 1.0002765 0 1 0 22.126953 54.685547 C 27.993079 53.930312 32.59422 53.111428 36.220703 52.292969 A 1.0001 1.0001 0 0 0 36.046875 50.314453 z"/></svg>